<?xml version="1.0" standalone="no"?>
<!DOCTYPE svg PUBLIC "-//W3C//DTD SVG 20010904//EN"
 "http://www.w3.org/TR/2001/REC-SVG-20010904/DTD/svg10.dtd">
<svg version="1.0" xmlns="http://www.w3.org/2000/svg"
 width="700.000000pt" height="700.000000pt" viewBox="0 0 700.000000 700.000000"
 preserveAspectRatio="xMidYMid meet">
<metadata>
Created by potrace 1.14, written by Peter Selinger 2001-2017
</metadata>
<g transform="translate(0.000000,700.000000) scale(0.100000,-0.100000)"
fill="#000000" stroke="none">
<path d="M6579 6822 c-91 -34 -207 -115 -403 -280 -129 -110 -163 -141 -386
-350 -150 -141 -821 -810 -1055 -1053 -132 -137 -476 -496 -545 -569 -14 -15
-90 -95 -170 -180 -80 -84 -161 -169 -180 -190 -60 -64 -266 -283 -300 -320
-18 -19 -87 -93 -154 -165 -66 -71 -152 -163 -191 -205 -38 -41 -90 -97 -115
-124 -49 -53 -70 -75 -145 -157 -27 -30 -96 -104 -152 -164 -56 -61 -110 -119
-120 -131 -10 -12 -63 -70 -118 -129 -55 -59 -109 -117 -120 -130 -103 -113
-228 -249 -333 -364 -48 -52 -95 -103 -105 -115 -10 -12 -35 -39 -56 -61 -20
-22 -82 -89 -136 -150 -121 -133 -125 -137 -125 -132 0 2 327 658 726 1458
1326 2655 1247 2494 1247 2542 0 56 -25 101 -73 133 -69 46 -108 36 -380 -99
-264 -130 -554 -287 -750 -404 -41 -25 -91 -54 -110 -65 -49 -29 -314 -198
-381 -244 -31 -22 -85 -59 -120 -83 -112 -77 -283 -207 -409 -310 -428 -351
-728 -699 -887 -1031 -114 -236 -246 -652 -298 -935 -8 -44 -16 -91 -19 -105
-6 -34 -14 -85 -21 -145 -3 -27 -8 -59 -10 -70 -12 -57 -20 -236 -20 -460 0
-253 6 -373 24 -500 6 -38 13 -90 16 -115 3 -25 8 -58 12 -75 4 -16 7 -37 8
-45 1 -8 5 -33 10 -55 4 -22 9 -47 10 -55 23 -131 114 -427 220 -720 56 -155
72 -164 300 -164 154 0 345 8 450 19 51 5 115 12 185 20 30 3 123 17 205 31
159 26 171 28 251 44 28 6 64 13 80 16 33 6 364 90 409 104 147 45 418 140
513 179 64 27 142 59 172 72 264 110 685 356 945 552 75 57 234 184 245 196 3
3 25 24 50 45 277 240 572 584 803 936 86 132 257 408 257 416 0 2 14 27 31
55 55 93 131 250 157 324 65 182 32 315 -94 374 -47 22 -133 27 -212 12 -40
-8 -42 -7 -36 13 43 143 327 655 579 1046 23 36 75 117 115 180 41 63 196 300
345 525 513 774 648 1019 646 1171 -1 153 -135 241 -282 186z m-225 -554 c-40
-72 -134 -217 -324 -503 -124 -187 -227 -344 -229 -350 -2 -5 -7 -12 -10 -15
-4 -3 -75 -111 -158 -240 -82 -129 -167 -262 -189 -295 -21 -33 -43 -69 -50
-80 -6 -11 -56 -95 -112 -186 -382 -631 -500 -934 -429 -1099 42 -96 143 -147
273 -137 l75 6 -53 -102 c-52 -103 -206 -366 -259 -444 -16 -23 -29 -44 -29
-46 0 -8 -126 -193 -199 -292 -171 -234 -411 -497 -611 -670 -30 -26 -68 -59
-84 -72 -108 -95 -526 -393 -550 -393 -2 0 -33 -17 -67 -38 -239 -145 -615
-312 -939 -418 -238 -77 -587 -164 -760 -189 -25 -4 -66 -11 -92 -15 -64 -13
-293 -40 -450 -55 l-48 -4 36 72 c38 74 53 96 133 183 25 27 75 83 111 123 36
41 76 86 90 100 14 14 86 94 160 176 74 83 139 155 145 161 5 6 46 51 90 99
44 49 91 100 104 114 13 14 58 64 100 110 42 46 81 89 86 95 6 6 62 67 124
136 117 128 145 159 311 340 52 57 106 115 118 129 13 14 65 71 115 125 51 54
100 108 110 119 9 11 59 66 111 121 51 56 105 115 121 131 72 78 213 231 240
260 17 17 75 80 130 140 55 59 114 122 130 140 64 68 252 269 284 304 147 159
483 512 802 845 541 565 1176 1198 1464 1461 54 50 117 107 139 127 44 41 51
45 40 26z m-3227 -775 c-2 -5 -200 -402 -439 -883 -1549 -3110 -1824 -3657
-1865 -3701 -22 -24 -61 -66 -86 -94 l-45 -49 -35 114 c-42 133 -93 331 -102
392 -4 24 -8 45 -10 48 -1 3 -6 27 -9 54 -4 27 -9 52 -11 55 -2 4 -6 38 -10
76 -4 39 -9 72 -10 75 -4 6 -15 128 -21 212 -4 80 -5 407 0 474 9 113 17 203
20 221 3 11 7 44 11 74 9 80 61 334 91 446 59 225 177 546 245 670 88 157 239
355 392 512 94 96 269 258 342 316 28 22 52 42 55 46 11 12 232 180 320 243
291 209 697 457 1075 658 97 51 98 52 92 41z"/>
</g>
</svg>
